<?xml version="1.0" standalone="no"?><!DOCTYPE svg PUBLIC "-//W3C//DTD SVG 1.1//EN" "http://www.w3.org/Graphics/SVG/1.1/DTD/svg11.dtd"><svg t="1781098524141" class="icon" viewBox="0 0 1024 1024" version="1.1" xmlns="http://www.w3.org/2000/svg" p-id="3173" xmlns:xlink="http://www.w3.org/1999/xlink" width="200" height="200"><path d="M511.855673 511.855541m-511.85554 0a511.855541 511.855541 0 1 0 1023.711081 0 511.855541 511.855541 0 1 0-1023.711081 0Z" fill="#2FC89F" p-id="3174"></path><path d="M511.855673 957.65705C341.032509 740.643013 139.258932 673.577767 139.258932 469.528955c0-190.397404 86.675601-280.720604 86.675601-280.720603L313.224087 277.506384s-78.910912 66.126261-78.910912 195.381251 71.65183 192.167031 96.209917 192.167031c0 0-28.891867-48.104959-28.891867-150.815546S345.546863 401.163575 345.546863 401.163575l40.593073 62.153629s-33.081188 27.050011-33.081187 99.713056 65.006701 149.804331 95.090357 149.804331c0 0-22.427312 11.520632-22.427312 52.619313s86.133879 99.207449 86.133879 99.207449zM511.855673 957.65705c170.823164-217.014037 372.632856-284.079283 372.632856-488.128095 0-190.397404-86.675601-280.720604-86.675601-280.720603L710.48726 277.506384s78.947027 66.126261 78.947026 195.381251-71.65183 192.167031-96.209917 192.167031c0 0 28.891867-48.104959 28.891867-150.815546S678.200598 401.163575 678.200598 401.163575l-40.593073 62.153629s33.045073 27.050011 33.045073 99.713056-65.006701 149.804331-95.054243 149.804331c0 0 22.427312 11.520632 22.427312 52.619313s-86.169994 99.207449-86.169994 99.207449zM511.097262 590.152501c-15.746068-49.621782-37.017705-90.720463-66.704099-118.781689 28.494604-46.515906 49.730126-101.121535 66.704099-160.060944M511.097262 590.152501c15.746068-49.621782 36.98159-90.720463 66.667983-118.781689-28.494604-46.515906-49.730126-101.121535-66.667983-160.060944" fill="#FFFFFF" p-id="3175"></path></svg>