<?xml version="1.0" standalone="no"?><!DOCTYPE svg PUBLIC "-//W3C//DTD SVG 1.1//EN" "http://www.w3.org/Graphics/SVG/1.1/DTD/svg11.dtd"><svg t="1781098573665" class="icon" viewBox="0 0 1024 1024" version="1.1" xmlns="http://www.w3.org/2000/svg" p-id="3820" xmlns:xlink="http://www.w3.org/1999/xlink" width="200" height="200"><path d="M511.855673 511.855541m-511.85554 0a511.855541 511.855541 0 1 0 1023.711081 0 511.855541 511.855541 0 1 0-1023.711081 0Z" fill="#A733B1" p-id="3821"></path><path d="M73.42159 262.663187l275.664527 442.081681h78.008041s53.919447 85.122663 0 141.859068c0 0 195.7424-29.794738 181.585385-350.313889 0 0-80.319391 101.591028-95.993229 128.135431 20.440996 4.117091 54.425055 38.281724 29.144671 39.220709s-103.396769-8.486986-181.874303-95.48762C277.83155 477.004726 73.42159 262.663187 73.42159 262.663187z" fill="#FFFFFF" p-id="3822"></path><path d="M524.893128 1022.988785l245.039148-459.777951-39.00402-67.570854s46.732595-89.239755 122.790435-70.929534c0 0-123.657191-154.643719-394.193412 18.057417 0 0 128.135431 18.743599 158.905269 19.032518-6.645129-19.754814 5.958948-66.27072 19.429781-44.854624s44.312901 93.898568 8.198067 205.276716c-37.667772 116.506454-121.165268 400.766312-121.165268 400.766312z" fill="#FFFFFF" p-id="3823"></path><path d="M950.289757 243.450095l-520.667561 17.660154L390.509831 328.681103s-100.543698 4.117091-122.790435-70.929534c0 0-72.229668 184.438457 212.644142 332.437046 0 0-47.81604-120.370741-62.98427-147.204063-13.795867 15.637723-60.384002 27.988996-48.538337 5.633915s59.047753-85.303238 173.640121-109.752981C662.418416 313.260069 950.289757 243.450095 950.289757 243.450095z" fill="#FFFFFF" p-id="3824"></path></svg>