<?xml version="1.0" standalone="no"?><!DOCTYPE svg PUBLIC "-//W3C//DTD SVG 1.1//EN" "http://www.w3.org/Graphics/SVG/1.1/DTD/svg11.dtd"><svg t="1781098480723" class="icon" viewBox="0 0 1024 1024" version="1.1" xmlns="http://www.w3.org/2000/svg" p-id="2555" xmlns:xlink="http://www.w3.org/1999/xlink" width="200" height="200"><path d="M511.855673 511.855541m-511.85554 0a511.855541 511.855541 0 1 0 1023.711081 0 511.855541 511.855541 0 1 0-1023.711081 0Z" fill="#C92B49" p-id="2556"></path><path d="M501.996324 390.329125c-138.825421-116.867602-267.935953 7.222967-267.935953 143.845383 0 123.476617 75.227199 244.425196 214.991606 312.104394 0 0 18.779714 50.777456-13.795867 70.82119 0 0 88.986951-45.107428 88.986951-124.704522 0-53.26938-29.469704-58.939409-29.469704-58.939409s-0.613952 43.337801-40.087466 43.337801-176.745997-47.346547-176.745997-218.783664c0 0 77.719123 146.626226 255.079072 146.626226s256.63201-99.026875 256.632009-225.934401-179.851873-275.122805-336.843055-309.901389c0 0-27.591733-35.103619-7.222967-66.41518 0 0-71.435141 12.531847-71.435141 87.722932s46.949284 97.510051 46.949284 97.510051-8.775905-79.452635 23.366297-58.939409 166.128236 88.15631 166.128236 191.589194-63.309304 119.684559-120.334626 119.684559-139.764407-57.025323-93.898569-135.972349c0 0 19.429781 75.841151 77.069056 75.841151 0 0-68.076462-43.337801-30.047542-79.452635 26.580518-25.569302 58.614375-10.039924 58.614376-10.039923z" fill="#FFFFFF" p-id="2557"></path></svg>