<?xml version="1.0" standalone="no"?><!DOCTYPE svg PUBLIC "-//W3C//DTD SVG 1.1//EN" "http://www.w3.org/Graphics/SVG/1.1/DTD/svg11.dtd"><svg t="1781098567047" class="icon" viewBox="0 0 1026 1024" version="1.1" xmlns="http://www.w3.org/2000/svg" p-id="3643" xmlns:xlink="http://www.w3.org/1999/xlink" width="200.390625" height="200"><path d="M514.420377 512m-512 0a512 512 0 1 0 1024 0 512 512 0 1 0-1024 0Z" fill="#37AFD1" p-id="3644"></path><path d="M511.385875 271.660199l-75.067805-71.166302 75.067805-112.312707 78.824807 112.312707-78.824807 71.166302z" fill="#FFFFFF" p-id="3645"></path><path d="M493.287236 223.975164h39.918155v225.52854h-39.918155z" fill="#FFFFFF" p-id="3646"></path><path d="M383.142031 253.742186l28.228095-28.228096 123.251366 123.251365-28.224484 28.228096z" fill="#FFFFFF" p-id="3647"></path><path d="M617.28639 224.636252l28.37982 28.379821-123.991928 123.991928-28.379821-28.379821zM517.454879 752.375926l75.10393 71.130177-75.10393 112.348832-78.788683-112.348832 78.788683-71.130177z" fill="#FFFFFF" p-id="3648"></path><path d="M535.553517 800.024836H495.635363v-225.52854h39.918154z" fill="#FFFFFF" p-id="3649"></path><path d="M645.716785 770.254202l-28.228095 28.224483-123.251366-123.251365 28.228096-28.224484z" fill="#FFFFFF" p-id="3650"></path><path d="M411.536301 799.417936l-28.37982-28.379821 123.991928-123.991929 28.379821 28.379821zM307.785225 634.82509l-24.059267 100.608199-134.854724-8.850632 57.908417-124.450716 101.005574 32.693149z" fill="#FFFFFF" p-id="3651"></path><path d="M275.568927 674.335031l-19.959077-34.57165 195.313568-112.76427 19.959077 34.57165z" fill="#FFFFFF" p-id="3652"></path><path d="M356.405899 754.80714l-38.556241-10.331757 45.112933-168.364299 38.556241 10.331758z" fill="#FFFFFF" p-id="3653"></path><path d="M214.120257 566.613815l10.389557-38.769378 169.375799 45.38387-10.389557 38.769379zM721.055528 389.211035l24.095393-100.608199 134.818599 8.850632-57.872293 124.414591-101.041699-32.657024z" fill="#FFFFFF" p-id="3654"></path><path d="M753.293502 349.708319l19.959077 34.57165-195.313568 112.760658-19.959077-34.571651z" fill="#FFFFFF" p-id="3655"></path><path d="M672.434855 269.210922l38.559853 10.331758-45.112933 168.364298-38.559853-10.331758z" fill="#FFFFFF" p-id="3656"></path><path d="M812.441008 459.853524l-10.436521 38.931941-170.091074-45.589783 10.440132-38.931941zM304.750723 394.449164l-99.163197 29.478021L145.836732 302.727722l136.6971-12.101884 22.216891 103.823326z" fill="#FFFFFF" p-id="3657"></path><path d="M254.428561 386.281295l19.96269-34.57165 195.313568 112.76427-19.959077 34.571651z" fill="#FFFFFF" p-id="3658"></path><path d="M225.13839 496.596289l-10.331758-38.559854 168.364299-45.112933 10.331757 38.559854z" fill="#FFFFFF" p-id="3659"></path><path d="M317.004332 279.232005l38.765766-10.389558 45.383871 169.375799-38.765766 10.389558zM724.09003 629.550836l99.163198-29.441896 59.750794 121.199463-136.6971 12.065759-22.216892-103.823326z" fill="#FFFFFF" p-id="3660"></path><path d="M774.42303 637.704255l-19.959077 34.57165-195.313568-112.767883 19.959077-34.57165z" fill="#FFFFFF" p-id="3661"></path><path d="M802.57165 530.882551l10.37872 38.722416-169.075961 45.318846-10.37872-38.722416z" fill="#FFFFFF" p-id="3662"></path><path d="M711.901446 744.814958l-38.769378 10.385945-45.383871-169.375799 38.769379-10.385945z" fill="#FFFFFF" p-id="3663"></path><path d="M515.612503 509.976999m-112.710083 0a112.710083 112.710083 0 1 0 225.420165 0 112.710083 112.710083 0 1 0-225.420165 0Z" fill="#FFFFFF" p-id="3664"></path><path d="M514.420377 512m-63.652297 0a63.652297 63.652297 0 1 0 127.304593 0 63.652297 63.652297 0 1 0-127.304593 0Z" fill="#37AFD1" p-id="3665"></path></svg>