<?xml version="1.0" standalone="no"?><!DOCTYPE svg PUBLIC "-//W3C//DTD SVG 1.1//EN" "http://www.w3.org/Graphics/SVG/1.1/DTD/svg11.dtd"><svg t="1781099439446" class="icon" viewBox="0 0 1024 1024" version="1.1" xmlns="http://www.w3.org/2000/svg" p-id="5198" xmlns:xlink="http://www.w3.org/1999/xlink" width="200" height="200"><path d="M511.855673 511.855541m-511.85554 0a511.855541 511.855541 0 1 0 1023.711081 0 511.855541 511.855541 0 1 0-1023.711081 0Z" fill="#951754" p-id="5199"></path><path d="M548.476115 533.993934m-161.361078 0a161.361078 161.361078 0 1 0 322.722156 0 161.361078 161.361078 0 1 0-322.722156 0Z" fill="#FFFFFF" p-id="5200"></path><path d="M570.325589 428.39416a110.078014 110.078014 0 0 1-121.165267 158.905269 110.114129 110.114129 0 1 0 121.165267-158.905269z" fill="#8D1E51" p-id="5201"></path><path d="M214.847279 830.171687a467.723214 467.723214 0 0 1-77.538548-148.070819 455.046907 455.046907 0 0 1 18.057417-319.327362 438.939691 438.939691 0 0 1 214.738802-218.964237 424.638217 424.638217 0 0 1 145.831699-38.028921 403.186006 403.186006 0 0 1 274.761657 79.452635l-1.950201 3.033646a399.141144 399.141144 0 0 0-64.32052-27.844537 387.187134 387.187134 0 0 0-67.31805-15.709953A410.98681 410.98681 0 0 0 589.141418 141.136771c-5.633914 0.397263-11.267828 0.505608-16.901743 1.083445l-16.793397 1.661282-16.685054 2.491924c-5.489455 0.902871-10.83445 2.16689-16.432249 3.250335a370.140932 370.140932 0 0 0-121.454186 50.307963A362.05121 362.05121 0 0 0 307.445713 287.437963a350.313889 350.313889 0 0 0-55.616844 111.486492 343.488185 343.488185 0 0 0-12.712421 120.479086 329.547859 329.547859 0 0 0 94.331946 208.707625z" fill="#FFFFFF" p-id="5202"></path><path d="M320.627628 413.08147a255.151301 255.151301 0 0 1 48.393877-82.161247 243.016717 243.016717 0 0 1 77.791352-58.072653 324.672357 324.672357 0 0 1 193.936658-23.98025 281.370671 281.370671 0 0 1 48.827256 14.445934 290.291035 290.291035 0 0 1 45.685265 23.474642 298.886365 298.886365 0 0 1 76.093955 69.448825 339.19052 339.19052 0 0 1 50.055159 90.612119 377.905622 377.905622 0 0 1 21.668901 101.591027 345.835649 345.835649 0 0 1-7.728575 105.888693 333.520491 333.520491 0 0 1-41.31537 100.290894 337.565352 337.565352 0 0 1-72.663046 82.775199 341.176836 341.176836 0 0 1-96.751639 55.5085 348.038654 348.038654 0 0 1-54.172251 15.421034 379.711363 379.711363 0 0 1-56.086337 6.645129 473.934965 473.934965 0 0 1-108.344502-8.306411 411.709106 411.709106 0 0 1-106.46653-35.825916 321.422022 321.422022 0 0 1-96.065458-72.77139l113.617267-94.115257a176.240389 176.240389 0 0 0 49.513437 45.143542 275.447838 275.447838 0 0 0 69.340481 30.55315 347.85808 347.85808 0 0 0 78.477534 13.398603 269.055512 269.055512 0 0 0 37.776117-0.650067 234.204698 234.204698 0 0 0 106.936023-37.812231 238.357904 238.357904 0 0 0 56.808633-53.016576 249.409043 249.409043 0 0 0 47.274318-109.427947 270.861254 270.861254 0 0 0 3.864287-41.207025 322.216548 322.216548 0 0 0-1.914086-42.146011 317.810538 317.810538 0 0 0-7.728574-41.495944 275.989561 275.989561 0 0 0-33.478451-77.502434 238.682937 238.682937 0 0 0-132.938704-102.277209 269.525005 269.525005 0 0 0-87.542357-10.834451A280.431685 280.431685 0 0 0 455.263728 292.819073a225.428793 225.428793 0 0 0-77.1774 46.949284 246.881004 246.881004 0 0 0-54.17225 74.721592z" fill="#FFFFFF" p-id="5203"></path><path d="M724.60816 309.142978l54.17225-27.627848S543.347808 153.488044 376.063898 329.367285c0 0 110.294703-91.117726 221.889539-65.006701s126.654722 44.782394 126.654723 44.782394z" fill="#FFFFFF" p-id="5204"></path></svg>