<?xml version="1.0" standalone="no"?><!DOCTYPE svg PUBLIC "-//W3C//DTD SVG 1.1//EN" "http://www.w3.org/Graphics/SVG/1.1/DTD/svg11.dtd"><svg t="1781098518462" class="icon" viewBox="0 0 1024 1024" version="1.1" xmlns="http://www.w3.org/2000/svg" p-id="2861" xmlns:xlink="http://www.w3.org/1999/xlink" width="200" height="200"><path d="M511.855673 511.855541m-511.85554 0a511.855541 511.855541 0 1 0 1023.711081 0 511.855541 511.855541 0 1 0-1023.711081 0Z" fill="#BEAA1D" p-id="2862"></path><path d="M747.216046 592.247161l190.758552-80.39162-191.155816-82.016788a56.591945 56.591945 0 0 1-26.688862-80.283276l62.587007-108.56119-114.736827 58.794949a56.62806 56.62806 0 0 1-77.971926-28.422374l-78.152501-185.630246L433.847632 270.68068a56.55583 56.55583 0 0 1-77.646893 28.530719L240.994419 240.994287l58.253227 113.545037A56.55583 56.55583 0 0 1 271.330879 432.366791l-185.449672 79.452635 184.90795 77.827467a56.591945 56.591945 0 0 1 28.566834 77.646893l-58.253227 115.567468 114.122875-57.783734a56.591945 56.591945 0 0 1 77.502433 28.205685l79.235946 184.691261 79.452634-185.377443a56.55583 56.55583 0 0 1 77.791352-28.061226l113.617268 58.217113-62.695352-110.366933a56.55583 56.55583 0 0 1 27.086126-80.138816z" fill="#FFFFFF" p-id="2863"></path><path d="M511.855673 511.855541m-167.392255 0a167.392255 167.392255 0 1 0 334.78451 0 167.392255 167.392255 0 1 0-334.78451 0Z" fill="#BEAA1D" p-id="2864"></path><path d="M511.855673 511.855541m-77.935811 0a77.935812 77.935812 0 1 0 155.871623 0 77.935812 77.935812 0 1 0-155.871623 0Z" fill="#FFFFFF" p-id="2865"></path></svg>